<svg xmlns="http://www.w3.org/2000/svg" viewBox="0 0 465.08 90.18"><defs><style>.cls-1{opacity:0.87;isolation:isolate;}.cls-2{fill:#2699fb;}</style></defs><g id="Layer_2" data-name="Layer 2"><g id="Layer_1-2" data-name="Layer 1"><g class="cls-1"><path class="cls-2" d="M172.15,48.44V33.21H159.1V80.64h8.22v7.88H141.49V80.64h8V33.21H136.59V48.44h-7.8V25.33h51.15V48.44Z"/><path class="cls-2" d="M223.1,68.69H186.16a15.45,15.45,0,0,0,4.9,10,14.57,14.57,0,0,0,10.07,3.67,18.4,18.4,0,0,0,8.09-1.8A15.82,15.82,0,0,0,215.47,75l7.63,3.44A23.22,23.22,0,0,1,213.64,87a28.4,28.4,0,0,1-12.72,2.87,26.37,26.37,0,0,1-12.67-3,21.53,21.53,0,0,1-8.61-8.31,23.43,23.43,0,0,1-3.09-12,23.73,23.73,0,0,1,3-11.95,21.83,21.83,0,0,1,8.33-8.32,24.79,24.79,0,0,1,23.79.08,21.43,21.43,0,0,1,8.16,8.81A31.09,31.09,0,0,1,223.1,68.69Zm-23.36-18.2a12.52,12.52,0,0,0-8.59,3.29,15.17,15.17,0,0,0-4.74,8.7H214a15.38,15.38,0,0,0-5.16-8.7A13.8,13.8,0,0,0,199.74,50.49Z"/><path class="cls-2" d="M262,60v20.8h7.38v7.71h-15V83.11q-6.3,6.17-14,6.17a15.17,15.17,0,0,1-12.85-6.94,13.22,13.22,0,0,1,.21-14.43,14.67,14.67,0,0,1,6.06-5,18.2,18.2,0,0,1,7.67-1.76,21,21,0,0,1,12,3.78V60.18c0-3.44-.72-5.9-2.18-7.38s-3.84-2.23-7.17-2.23a12.34,12.34,0,0,0-5.89,1.28,10.34,10.34,0,0,0-3.92,3.88l-8.3-2a18.5,18.5,0,0,1,7.59-7.82A23.59,23.59,0,0,1,245,43.28q8.85,0,12.94,4T262,60Zm-20.47,22.6q6.38,0,11.95-5.32V72.13q-5.66-4.41-11.32-4.4a8.75,8.75,0,0,0-5.93,2.15,7.24,7.24,0,0,0-.31,10.66A7.8,7.8,0,0,0,241.55,82.61Z"/><path class="cls-2" d="M303.16,47.64V44.45h7.71V61.14h-7.71a10.07,10.07,0,0,0-3.86-7.36,12.52,12.52,0,0,0-7.76-2.53,11.89,11.89,0,0,0-6.77,2,13.27,13.27,0,0,0-4.63,5.45,17.24,17.24,0,0,0-1.64,7.51q0,6.91,3.69,11.3a12.11,12.11,0,0,0,9.73,4.38q9.34,0,13.21-8.68l7.21,3.44q-6.07,13.16-20.8,13.16a22.09,22.09,0,0,1-11.7-3.1,21.05,21.05,0,0,1-7.9-8.51,25.8,25.8,0,0,1-2.79-12A24.47,24.47,0,0,1,272,54.47a20.84,20.84,0,0,1,18.81-11.19A18.51,18.51,0,0,1,303.16,47.64Z"/><path class="cls-2" d="M341.87,43.28q12.28,0,12.28,13.29V80.81h7.47v7.71H345.47V59.67c0-3.15-.45-5.38-1.36-6.66a4.79,4.79,0,0,0-4.21-1.93q-4.83,0-12.54,5.66V80.81H335v7.71H310.8V80.81h7.88V33H310.8V25.33h16.56V49.61Q335.16,43.28,341.87,43.28Z"/><path class="cls-2" d="M378.44,33.21l11.11,16.57,11-16.57h-7.3V25.33h24.28v7.88h-7.88L394,56.4l17,24.24h8.14v7.88H393.24V80.64h7.38l-11.7-17.28L377.35,80.64h7.71v7.88H359.9V80.64h8.35l16.23-24L368.33,33.21h-8.09V25.33h25.41v7.88Z"/><path class="cls-2" d="M459.26,41.89a15.42,15.42,0,0,1-3.44,10.21,17.72,17.72,0,0,1-9.61,5.69l11.16,22.85h7.71v7.88H450.91L437,59.09H428.1V80.64h8v7.88H410V80.64h8.56V33.21H410V25.33h26.25q12.21,0,17.62,4T459.26,41.89Zm-9.86-.16q0-4.41-2.77-6.46t-8.76-2.06H428.1V51.16h9.18q6.17,0,9.14-2.14C448.41,47.6,449.4,45.16,449.4,41.73Z"/><g id="_0pZqT4.tif" data-name="0pZqT4.tif"><path class="cls-2" d="M57.13,90.13c-15.92,0-31.84-.1-47.76.05A8.88,8.88,0,0,1,0,80.82C.18,61.15.17,56.38,0,36.7c0-5.48,3.74-9.42,9.28-9.22,6.16.23,12.34,0,18.51.08,1.47,0,2-.4,2-1.92a77.24,77.24,0,0,1,0-7.76A3.2,3.2,0,0,1,31,15.64Q43.4,7.84,55.88.24a2.64,2.64,0,0,1,2.23,0Q70.94,7.91,83.63,15.75a3,3,0,0,1,1.12,2.13c.14,2.58.13,5.17,0,7.76-.06,1.53.53,1.93,2,1.92,6.22-.06,12.45,0,18.67,0,5.43,0,8.74,3.29,8.74,8.69,0,20,0,25.06,0,45,0,5.46-3.38,8.85-8.82,8.85ZM23.59,66.32V82.78c0,2.31,0,2.31,2.3,2.31H88.42c2.24,0,2.24,0,2.24-2.21,0-20.44,0-26,0-46.43,0-4.17,0-4.13-4.26-4.07-1.24,0-1.62.47-1.61,1.65,0,3.57,0,7.15,0,10.72a3,3,0,0,1-1.59,2.91Q70.93,55.21,58.66,62.87a2.28,2.28,0,0,1-2.71,0q-12.37-7.62-24.8-15.16a2.62,2.62,0,0,1-1.43-2.51c.06-3.73,0-7.46,0-11.19,0-1.17-.4-1.73-1.63-1.65a14.66,14.66,0,0,1-2.65,0c-1.53-.17-1.91.48-1.91,1.94C23.62,45,23.59,55.65,23.59,66.32Zm-4.87,0c0-10.71,0-21.42,0-32.13,0-1.34-.4-1.84-1.78-1.79-2.43.08-4.87,0-7.31,0C6,32.41,5,33.47,5,37.12c0,19.4,0,23.9,0,43.3,0,.41,0,.83,0,1.24.16,2.23,1.34,3.39,3.58,3.42,2.64,0,5.29,0,7.93,0,2.25,0,2.25,0,2.25-2.19Zm77,0h0c0,10.82,0,6.72,0,17.53,0,1,.35,1.27,1.25,1.27,2.85,0,5.7,0,8.55,0,2.68,0,3.89-1.19,3.89-3.9,0-19.92,0-24.93,0-44.85,0-2.63-1.26-3.87-3.94-3.93-2,0-3.94,0-5.91,0-3.77,0-3.76,0-3.76,3.79Q95.71,51.25,95.69,66.3ZM37.06,17.7c.24.32.29.43.37.48C43.61,22,49.79,25.76,56,29.47a2.43,2.43,0,0,0,2.09,0c6.14-3.66,12.23-7.4,18.34-11.11.3-.18.62-.33,1.33-.71-.7-.36-.9-.44-1.08-.55C70.46,13.27,64.23,9.46,58,5.74a2.46,2.46,0,0,0-2.11.13C50,9.44,44.11,13.08,38.26,16.72A12.62,12.62,0,0,0,37.06,17.7Zm42.69,4.5a4.49,4.49,0,0,0-.85.28C72.71,26.24,66.49,30,60.36,33.84a3.16,3.16,0,0,0-1,2.34c-.08,6.16-.05,12.32,0,18.47a17.86,17.86,0,0,0,.18,1.8c.59-.27,1-.4,1.31-.6C66.65,52.23,72.5,48.59,78.38,45a2.86,2.86,0,0,0,1.51-2.78c0-6.1,0-12.21,0-18.31C79.86,23.41,79.8,22.9,79.75,22.2ZM54.11,56.11a5.58,5.58,0,0,0,.22-.93c0-6.67.05-13.35,0-20a2.65,2.65,0,0,0-1.14-1.81c-4.88-3.05-9.81-6-14.73-9-1.08-.66-2.19-1.26-3.48-2a10.5,10.5,0,0,0-.24,1.43c0,6.41,0,12.83,0,19.25A2.76,2.76,0,0,0,35.93,45c4.51,2.86,9.08,5.61,13.63,8.4C51,54.25,52.46,55.11,54.11,56.11Z"/><path class="cls-2" d="M57.1,69.18c4.4,0,8.8,0,13.2,0,1.36,0,1.81.47,1.81,1.8,0,3.08.06,3.08-3,3.08-8.34,0-16.68,0-25,0-1.58,0-2.22-.48-2-2a4.33,4.33,0,0,0,0-1.08c-.16-1.36.45-1.81,1.79-1.79C48.29,69.22,52.69,69.18,57.1,69.18Z"/></g><polygon class="cls-2" points="41.9 49.86 38.17 49.81 38.53 21.47 65.26 4.91 67.22 8.07 42.23 23.56 41.9 49.86"/><polygon class="cls-2" points="50.67 54.23 46.95 54.18 47.31 25.84 74.03 9.28 76 12.44 51.01 27.93 50.67 54.23"/><path class="cls-2" d="M64.4,45.13a1.41,1.41,0,0,1-.72-.19,1.47,1.47,0,0,1-.77-1.3V36.36a1.49,1.49,0,0,1,.71-1.27l10.9-6.71a1.49,1.49,0,0,1,2.27,1.27v7.28a1.49,1.49,0,0,1-.71,1.27l-10.9,6.71A1.44,1.44,0,0,1,64.4,45.13Zm1.49-7.94V41l7.92-4.87V32.32Z"/></g></g></g></svg>