<svg width="700" height="502" viewBox="0 0 700 502" fill="none" xmlns="http://www.w3.org/2000/svg">
<g clip-path="url(#clip0_318_4514)">
<rect width="700" height="502" fill="white"/>
<g filter="url(#filter0_ddd_318_4514)">
<path fill-rule="evenodd" clip-rule="evenodd" d="M-32 -87H732V553H-32V-87Z" fill="#2A56C6"/>
</g>
<path d="M256.007 238.82V274.39H241.281V227.11H255.046L256.007 238.82ZM269.99 226.76L269.728 240.437C269.145 240.379 268.359 240.306 267.368 240.219C266.378 240.131 265.548 240.088 264.878 240.088C263.159 240.088 261.673 240.292 260.42 240.699C259.197 241.078 258.177 241.661 257.362 242.447C256.575 243.205 255.993 244.166 255.614 245.331C255.264 246.497 255.104 247.851 255.133 249.395L252.468 247.647C252.468 244.472 252.774 241.588 253.385 238.995C254.026 236.373 254.929 234.116 256.094 232.222C257.26 230.3 258.673 228.828 260.333 227.809C261.994 226.76 263.858 226.236 265.926 226.236C266.655 226.236 267.368 226.279 268.067 226.367C268.796 226.454 269.437 226.585 269.99 226.76Z" fill="white"/>
<path d="M271.515 251.23V250.313C271.515 246.846 272.01 243.656 273.001 240.743C273.991 237.801 275.448 235.252 277.371 233.096C279.293 230.94 281.667 229.265 284.493 228.071C287.319 226.847 290.582 226.236 294.281 226.236C298.01 226.236 301.287 226.847 304.113 228.071C306.968 229.265 309.357 230.94 311.279 233.096C313.202 235.252 314.659 237.801 315.649 240.743C316.64 243.656 317.135 246.846 317.135 250.313V251.23C317.135 254.668 316.64 257.858 315.649 260.8C314.659 263.713 313.202 266.262 311.279 268.447C309.357 270.603 306.983 272.278 304.157 273.472C301.331 274.666 298.068 275.264 294.369 275.264C290.669 275.264 287.392 274.666 284.537 273.472C281.682 272.278 279.293 270.603 277.371 268.447C275.448 266.262 273.991 263.713 273.001 260.8C272.01 257.858 271.515 254.668 271.515 251.23ZM286.241 250.313V251.23C286.241 253.007 286.372 254.668 286.634 256.212C286.897 257.756 287.333 259.11 287.945 260.276C288.557 261.412 289.387 262.3 290.436 262.941C291.485 263.582 292.796 263.902 294.369 263.902C295.913 263.902 297.194 263.582 298.214 262.941C299.263 262.3 300.093 261.412 300.705 260.276C301.316 259.11 301.753 257.756 302.016 256.212C302.278 254.668 302.409 253.007 302.409 251.23V250.313C302.409 248.594 302.278 246.977 302.016 245.462C301.753 243.918 301.316 242.564 300.705 241.399C300.093 240.204 299.263 239.272 298.214 238.602C297.165 237.932 295.854 237.597 294.281 237.597C292.737 237.597 291.441 237.932 290.392 238.602C289.373 239.272 288.557 240.204 287.945 241.399C287.333 242.564 286.897 243.918 286.634 245.462C286.372 246.977 286.241 248.594 286.241 250.313Z" fill="white"/>
<path d="M334.804 236.199V292.568H320.078V227.11H333.799L334.804 236.199ZM363.819 250.182V251.099C363.819 254.537 363.425 257.727 362.639 260.669C361.852 263.611 360.687 266.175 359.143 268.36C357.599 270.544 355.676 272.249 353.375 273.472C351.103 274.666 348.466 275.264 345.466 275.264C342.64 275.264 340.208 274.637 338.169 273.385C336.129 272.132 334.425 270.399 333.056 268.185C331.687 265.971 330.58 263.436 329.735 260.581C328.89 257.727 328.22 254.712 327.725 251.536V250.356C328.22 246.948 328.89 243.787 329.735 240.874C330.58 237.932 331.687 235.368 333.056 233.184C334.425 230.999 336.115 229.295 338.125 228.071C340.164 226.847 342.596 226.236 345.422 226.236C348.423 226.236 351.059 226.804 353.331 227.94C355.633 229.076 357.555 230.707 359.099 232.834C360.672 234.931 361.852 237.451 362.639 240.394C363.425 243.336 363.819 246.598 363.819 250.182ZM349.093 251.099V250.182C349.093 248.346 348.962 246.671 348.699 245.156C348.437 243.613 348.015 242.272 347.432 241.136C346.879 240 346.136 239.126 345.204 238.515C344.272 237.903 343.121 237.597 341.752 237.597C340.179 237.597 338.853 237.845 337.775 238.34C336.727 238.806 335.882 239.534 335.241 240.525C334.629 241.486 334.192 242.695 333.93 244.151C333.697 245.579 333.595 247.254 333.624 249.177V252.76C333.566 254.974 333.784 256.926 334.279 258.615C334.775 260.276 335.634 261.572 336.858 262.504C338.081 263.436 339.742 263.902 341.839 263.902C343.237 263.902 344.403 263.582 345.335 262.941C346.267 262.271 347.01 261.353 347.563 260.188C348.117 258.994 348.51 257.625 348.743 256.081C348.976 254.537 349.093 252.876 349.093 251.099Z" fill="white"/>
<path d="M393.222 262.504V243.015C393.222 241.675 393.033 240.525 392.654 239.563C392.276 238.602 391.678 237.859 390.863 237.335C390.047 236.781 388.955 236.504 387.585 236.504C386.478 236.504 385.532 236.694 384.745 237.073C383.959 237.451 383.361 238.019 382.954 238.777C382.546 239.534 382.342 240.495 382.342 241.661H367.616C367.616 239.476 368.097 237.451 369.058 235.587C370.048 233.693 371.447 232.047 373.253 230.649C375.088 229.251 377.273 228.173 379.807 227.416C382.371 226.629 385.226 226.236 388.372 226.236C392.13 226.236 395.48 226.862 398.422 228.115C401.394 229.367 403.739 231.246 405.457 233.752C407.176 236.228 408.036 239.345 408.036 243.103V262.46C408.036 265.548 408.21 267.893 408.56 269.496C408.909 271.069 409.405 272.452 410.046 273.647V274.39H395.276C394.577 272.933 394.053 271.156 393.703 269.059C393.383 266.932 393.222 264.747 393.222 262.504ZM395.014 245.506L395.101 253.371H388.59C387.221 253.371 386.056 253.561 385.095 253.94C384.162 254.318 383.405 254.843 382.822 255.513C382.269 256.154 381.861 256.882 381.599 257.697C381.366 258.513 381.249 259.373 381.249 260.276C381.249 261.15 381.453 261.936 381.861 262.635C382.298 263.305 382.881 263.83 383.609 264.208C384.337 264.587 385.153 264.776 386.056 264.776C387.687 264.776 389.071 264.47 390.207 263.859C391.372 263.218 392.261 262.446 392.873 261.543C393.484 260.64 393.79 259.795 393.79 259.008L397.024 265.039C396.441 266.204 395.771 267.384 395.014 268.578C394.286 269.772 393.368 270.879 392.261 271.899C391.183 272.889 389.858 273.705 388.285 274.346C386.711 274.958 384.803 275.264 382.56 275.264C379.647 275.264 376.967 274.666 374.52 273.472C372.102 272.278 370.165 270.617 368.708 268.491C367.252 266.335 366.523 263.859 366.523 261.062C366.523 258.615 366.96 256.43 367.834 254.508C368.737 252.585 370.092 250.954 371.898 249.614C373.704 248.274 376.006 247.254 378.802 246.555C381.599 245.856 384.891 245.506 388.678 245.506H395.014Z" fill="white"/>
<path d="M415.46 267.486C415.46 265.388 416.217 263.64 417.732 262.242C419.247 260.815 421.199 260.101 423.587 260.101C426.005 260.101 427.957 260.815 429.443 262.242C430.958 263.64 431.715 265.388 431.715 267.486C431.715 269.583 430.958 271.345 429.443 272.773C427.957 274.171 426.005 274.87 423.587 274.87C421.199 274.87 419.247 274.171 417.732 272.773C416.217 271.345 415.46 269.583 415.46 267.486Z" fill="white"/>
<path d="M462.624 261.106C462.624 260.29 462.347 259.591 461.794 259.008C461.27 258.397 460.337 257.843 458.997 257.348C457.657 256.824 455.778 256.299 453.36 255.775C451.059 255.28 448.889 254.624 446.85 253.808C444.84 252.993 443.077 252.002 441.562 250.837C440.048 249.672 438.853 248.288 437.979 246.686C437.134 245.084 436.712 243.248 436.712 241.18C436.712 239.17 437.134 237.276 437.979 235.499C438.853 233.693 440.12 232.106 441.781 230.737C443.47 229.338 445.524 228.246 447.942 227.459C450.36 226.644 453.113 226.236 456.201 226.236C460.454 226.236 464.124 226.891 467.212 228.202C470.3 229.484 472.675 231.29 474.335 233.621C476.025 235.922 476.869 238.587 476.869 241.617H462.144C462.144 240.423 461.94 239.403 461.532 238.558C461.153 237.713 460.527 237.073 459.653 236.636C458.779 236.169 457.614 235.936 456.157 235.936C455.138 235.936 454.205 236.126 453.36 236.504C452.545 236.883 451.889 237.408 451.394 238.078C450.899 238.748 450.651 239.534 450.651 240.437C450.651 241.078 450.797 241.661 451.088 242.185C451.409 242.68 451.889 243.146 452.53 243.583C453.171 243.991 453.987 244.37 454.977 244.72C455.968 245.04 457.162 245.331 458.56 245.593C461.736 246.176 464.707 247.006 467.475 248.084C470.242 249.162 472.485 250.691 474.204 252.672C475.952 254.653 476.826 257.319 476.826 260.669C476.826 262.766 476.345 264.704 475.384 266.481C474.422 268.228 473.039 269.772 471.233 271.112C469.426 272.423 467.256 273.443 464.722 274.171C462.187 274.899 459.332 275.264 456.157 275.264C451.642 275.264 447.826 274.463 444.709 272.86C441.591 271.229 439.232 269.19 437.63 266.743C436.057 264.267 435.27 261.761 435.27 259.227H448.991C449.049 260.683 449.399 261.878 450.04 262.81C450.71 263.742 451.598 264.427 452.705 264.864C453.812 265.301 455.094 265.519 456.55 265.519C457.89 265.519 458.997 265.33 459.871 264.951C460.774 264.572 461.459 264.063 461.925 263.422C462.391 262.752 462.624 261.98 462.624 261.106Z" fill="white"/>
<path d="M501.991 263.902C503.36 263.902 504.525 263.655 505.487 263.16C506.477 262.635 507.22 261.907 507.715 260.975C508.239 260.013 508.487 258.863 508.458 257.523H522.31C522.339 261.077 521.465 264.194 519.688 266.874C517.94 269.525 515.551 271.593 512.522 273.079C509.521 274.535 506.127 275.264 502.34 275.264C498.641 275.264 495.407 274.666 492.64 273.472C489.872 272.249 487.556 270.559 485.692 268.403C483.857 266.218 482.473 263.669 481.541 260.756C480.638 257.843 480.186 254.682 480.186 251.274V250.269C480.186 246.861 480.638 243.7 481.541 240.787C482.473 237.845 483.857 235.296 485.692 233.14C487.556 230.955 489.858 229.265 492.596 228.071C495.363 226.847 498.582 226.236 502.253 226.236C506.186 226.236 509.652 226.979 512.653 228.464C515.682 229.95 518.057 232.106 519.775 234.931C521.494 237.757 522.339 241.18 522.31 245.2H508.458C508.487 243.773 508.269 242.491 507.802 241.355C507.336 240.219 506.608 239.316 505.618 238.646C504.656 237.946 503.418 237.597 501.903 237.597C500.389 237.597 499.165 237.932 498.233 238.602C497.301 239.272 496.587 240.204 496.092 241.399C495.626 242.564 495.305 243.904 495.13 245.419C494.985 246.933 494.912 248.55 494.912 250.269V251.274C494.912 253.022 494.985 254.668 495.13 256.212C495.305 257.727 495.64 259.067 496.135 260.232C496.631 261.368 497.344 262.271 498.277 262.941C499.209 263.582 500.447 263.902 501.991 263.902Z" fill="white"/>
<path d="M542.45 227.11V274.39H527.68V227.11H542.45ZM526.806 214.918C526.806 212.821 527.564 211.102 529.079 209.762C530.593 208.422 532.56 207.752 534.978 207.752C537.396 207.752 539.362 208.422 540.877 209.762C542.392 211.102 543.149 212.821 543.149 214.918C543.149 217.016 542.392 218.734 540.877 220.074C539.362 221.415 537.396 222.085 534.978 222.085C532.56 222.085 530.593 221.415 529.079 220.074C527.564 218.734 526.806 217.016 526.806 214.918Z" fill="white"/>
<path d="M203.58 219.885C203.58 227.001 197.811 232.77 190.695 232.77C183.578 232.77 177.809 227.001 177.809 219.885C177.809 212.769 183.578 207 190.695 207C197.811 207 203.58 212.769 203.58 219.885Z" fill="white"/>
<path d="M149.307 253.42C147.532 250.458 148.494 246.618 151.456 244.842L166.234 235.985C169.196 234.21 173.036 235.172 174.812 238.134L183.669 252.912C185.445 255.874 184.482 259.714 181.52 261.49L166.742 270.347C163.78 272.122 159.94 271.16 158.164 268.198L149.307 253.42Z" fill="white"/>
<path d="M192.522 274.763C188.519 274.763 187.299 269.332 190.917 267.62L197.274 264.611C198.683 263.944 199.533 262.475 199.409 260.921L198.679 251.796C198.378 248.036 203.192 246.233 205.435 249.266L219.868 268.78C221.699 271.256 219.932 274.763 216.851 274.763H192.522Z" fill="white"/>
</g>
<defs>
<filter id="filter0_ddd_318_4514" x="-42" y="-96" width="784" height="660" filterUnits="userSpaceOnUse" color-interpolation-filters="sRGB">
<feFlood flood-opacity="0" result="BackgroundImageFix"/>
<feColorMatrix in="SourceAlpha" type="matrix" values="0 0 0 0 0 0 0 0 0 0 0 0 0 0 0 0 0 0 127 0" result="hardAlpha"/>
<feOffset dy="1"/>
<feGaussianBlur stdDeviation="5"/>
<feColorMatrix type="matrix" values="0 0 0 0 0 0 0 0 0 0 0 0 0 0 0 0 0 0 0.2 0"/>
<feBlend mode="normal" in2="BackgroundImageFix" result="effect1_dropShadow_318_4514"/>
<feColorMatrix in="SourceAlpha" type="matrix" values="0 0 0 0 0 0 0 0 0 0 0 0 0 0 0 0 0 0 127 0" result="hardAlpha"/>
<feOffset dy="4"/>
<feGaussianBlur stdDeviation="2.5"/>
<feColorMatrix type="matrix" values="0 0 0 0 0 0 0 0 0 0 0 0 0 0 0 0 0 0 0.12 0"/>
<feBlend mode="normal" in2="effect1_dropShadow_318_4514" result="effect2_dropShadow_318_4514"/>
<feColorMatrix in="SourceAlpha" type="matrix" values="0 0 0 0 0 0 0 0 0 0 0 0 0 0 0 0 0 0 127 0" result="hardAlpha"/>
<feOffset dy="2"/>
<feGaussianBlur stdDeviation="2"/>
<feColorMatrix type="matrix" values="0 0 0 0 0 0 0 0 0 0 0 0 0 0 0 0 0 0 0.14 0"/>
<feBlend mode="normal" in2="effect2_dropShadow_318_4514" result="effect3_dropShadow_318_4514"/>
<feBlend mode="normal" in="SourceGraphic" in2="effect3_dropShadow_318_4514" result="shape"/>
</filter>
<clipPath id="clip0_318_4514">
<rect width="700" height="502" fill="white"/>
</clipPath>
</defs>
</svg>
